<svg width="19" height="32" viewBox="0 0 19 32"  xmlns="http://www.w3.org/2000/svg">
<path d="M0.880686 0.880045C0.318884 1.44255 0.00332632 2.20504 0.00332628 3.00004C0.00332625 3.79505 0.318884 4.55754 0.880686 5.12004L11.7607 16L0.880685 26.88C0.350764 27.4487 0.0622737 28.2009 0.0759856 28.9781C0.0896975 29.7553 0.404545 30.4969 0.954197 31.0465C1.50385 31.5962 2.24539 31.911 3.02259 31.9247C3.7998 31.9385 4.55199 31.65 5.12069 31.12L18.1207 18.12C18.6825 17.5575 18.998 16.795 18.998 16C18.998 15.205 18.6825 14.4425 18.1207 13.88L5.12069 0.880045C4.55819 0.318243 3.79569 0.00268488 3.00069 0.00268485C2.20568 0.00268481 1.44319 0.318243 0.880686 0.880045Z"/>
</svg>
