<svg width="87" height="86" viewBox="0 0 87 86" fill="none" xmlns="http://www.w3.org/2000/svg">
<g id="ford-svgrepo-com">
<path id="Vector" d="M43.6326 26.9246C19.808 26.9246 0.667969 34.003 0.667969 42.8676C0.667969 51.6661 19.9418 58.8107 43.6326 58.8107C67.3234 58.8107 86.5972 51.6661 86.5972 42.8676C86.6641 34.1353 67.3234 26.9246 43.6326 26.9246ZM43.6326 57.4215C20.8787 57.4215 2.47489 50.9384 2.47489 42.8676C2.47489 34.863 20.9457 28.3138 43.6326 28.3138C66.3864 28.3138 84.7903 34.7969 84.7903 42.8676C84.8572 50.9384 66.3864 57.4215 43.6326 57.4215ZM60.5641 46.1092C60.5641 46.1753 60.5641 46.2415 60.5641 46.2415C60.5641 46.3076 60.698 46.3738 60.7649 46.4399C60.7649 46.4399 60.8318 46.5061 60.7649 46.5723C60.4972 47.1676 60.2295 47.4984 59.8949 47.9615C59.5603 48.4246 59.2257 48.7553 58.8241 49.0861C58.2218 49.6153 57.2849 50.1446 56.5487 49.8138C56.2141 49.6153 56.0803 49.2184 56.0803 48.8215C56.0803 47.8292 56.5487 46.7707 57.4187 45.7123C58.4226 44.4553 59.6272 43.7938 60.3634 44.1907C61.1664 44.5215 60.9657 45.4476 60.5641 46.1092ZM39.2826 39.4938C39.2157 39.0969 39.3495 38.6338 39.751 38.303C39.9518 38.1046 40.2195 38.1046 40.4203 38.2369C40.621 38.3692 40.4872 38.7661 40.3534 39.0969C40.1526 39.4276 39.818 39.6923 39.4834 39.6923C39.3495 39.6261 39.2826 39.6261 39.2826 39.4938ZM43.6326 29.5707C21.6818 29.5707 3.88028 35.5907 3.88028 42.9338C3.88028 50.2107 21.6818 56.2307 43.6326 56.2307C65.5834 56.2307 83.3849 50.2107 83.3849 42.8676C83.3849 35.5246 65.5834 29.5707 43.6326 29.5707ZM23.221 51.6661C20.8787 51.6661 18.8041 50.2769 18.5364 47.763C18.4026 46.3738 18.8041 45.183 19.6072 44.1246C20.2764 43.1984 21.481 42.4707 22.4849 42.2723C22.8195 42.2061 23.221 42.2723 23.4218 42.4707C23.6895 42.8015 23.6226 43.1323 23.3549 43.3307C22.6187 43.7276 21.6818 44.3892 21.2134 45.2492C20.8118 45.9769 20.7449 46.903 21.3472 47.6969C22.2841 49.0861 24.8941 49.1523 27.3703 46.903C27.9726 46.3738 28.508 45.8446 29.0434 45.183C30.1141 43.9923 30.4487 43.5292 31.921 41.5446V41.4784C31.921 41.4784 31.921 41.4784 31.8541 41.4123C30.9172 41.4123 30.0472 41.743 29.2441 42.3384C29.0434 42.5369 28.7087 42.4707 28.508 42.2723C28.3741 42.0076 28.441 41.6769 28.7087 41.5446C29.9803 40.6184 31.4526 40.4861 32.858 40.2215C32.858 40.2215 32.9918 40.2215 33.0587 40.0892C33.661 39.3615 34.1295 38.6338 34.7318 37.9061C35.4011 37.1123 36.2041 36.4507 36.8064 35.8553C37.6764 35.1276 38.2787 34.863 38.8141 34.5323C38.948 34.4661 38.8141 34.3338 38.7472 34.3338C35.5349 33.7384 32.1887 32.9446 29.0434 34.1353C26.8349 34.9292 25.898 36.6492 26.3664 37.8399C26.701 38.6338 27.7718 38.7661 28.8426 38.303C29.7126 37.9061 30.4487 37.2446 31.051 36.3846C31.3857 35.9215 31.988 36.2523 31.6534 37.0461C30.7164 39.2292 28.9095 40.9492 26.768 41.0153C24.8941 41.0815 23.7564 39.7584 23.7564 38.1046C23.7564 34.863 27.4372 32.6799 31.3187 32.3492C36.0034 31.9523 40.4203 33.2092 45.038 33.7384C48.5849 34.1353 51.998 34.2015 55.5449 33.3415C55.9464 33.2753 56.2811 33.5399 56.2141 33.9369C56.1472 34.5323 55.6787 35.1276 54.541 35.7892C53.2026 36.5169 51.7972 36.7153 50.3249 36.7153C46.778 36.7153 43.4987 35.3923 40.0857 34.6646C40.0857 34.7969 40.1526 34.9953 40.0187 35.0615C38.1449 36.4507 36.4049 37.8399 35.2672 39.7584C35.2003 39.8246 35.2672 39.8246 35.3341 39.8246C36.338 39.7584 37.208 39.7584 38.1449 39.6923C38.2787 39.6923 38.2787 39.6261 38.2787 39.4938C38.2118 38.8323 38.4126 38.0384 39.0149 37.5092C39.6172 36.9799 40.4203 36.9138 40.8887 37.3107C41.491 37.7738 41.4241 38.5676 41.0895 39.163C40.7549 39.7584 40.2195 40.0892 39.751 40.2876C39.751 40.2876 39.6172 40.2876 39.6841 40.4199C39.6841 40.5523 40.4203 40.9492 40.4872 41.0815C40.5541 41.1476 40.4872 41.3461 40.4203 41.4123C40.3534 41.4784 40.2195 41.5446 40.0857 41.5446C39.9518 41.5446 39.8849 41.4784 39.751 41.4123C39.4164 41.2138 39.0149 40.9492 38.8141 40.6184C38.7472 40.4861 38.6803 40.4861 38.4795 40.4861C37.4757 40.5523 35.9364 40.6846 34.8657 40.8169C34.598 40.8169 34.598 40.883 34.531 41.0153C32.858 43.7276 31.051 46.7046 29.0434 48.6892C26.9018 51.0707 25.0949 51.6661 23.221 51.6661ZM68.9295 38.303C68.5949 38.8323 62.3041 48.3584 61.9026 49.2846C61.7687 49.6153 61.7687 49.8138 61.9026 50.0123C62.2372 50.4753 62.9734 50.2107 63.4418 49.8799C64.7803 48.9538 65.7172 47.8292 66.788 46.8369C66.8549 46.7707 66.9218 46.7707 66.9887 46.8369C67.1226 46.9692 67.3903 47.1676 67.5241 47.2999C67.591 47.3661 67.591 47.4323 67.5241 47.4984C66.5203 48.7553 65.3826 49.8799 64.3118 50.7399C62.6387 51.9969 60.9657 52.3276 60.0957 51.5338C59.7611 51.203 59.6272 50.8061 59.6272 50.4092C59.6272 50.2107 59.4934 50.2107 59.4264 50.2769C58.4226 51.2692 56.6826 52.3276 55.1434 51.5338C53.8049 50.8723 53.5372 49.3507 53.8049 48.0276C53.8049 48.0276 53.8049 47.8292 53.6041 47.8953C53.3364 48.0938 53.0018 48.2923 52.5334 48.4907C51.998 48.6892 51.7303 48.7553 51.1949 48.7553C50.5257 48.7553 49.9903 48.4907 49.5887 47.8292C49.388 47.4984 49.2541 46.9692 49.2541 46.5723C49.2541 46.5061 49.1872 46.4399 49.1203 46.5723C48.0495 48.1599 47.0457 49.7476 45.9749 51.4015C45.908 51.4676 45.841 51.5338 45.7741 51.5338C45.1049 51.5338 44.3687 51.5338 43.6995 51.5338C43.5657 51.5338 43.4987 51.4676 43.5657 51.3353C43.9672 50.6076 45.9749 47.6969 47.3803 45.183C47.7818 44.5215 47.7149 44.1246 47.4472 43.9923C47.1795 43.7938 46.5772 44.0584 46.0418 44.4553C44.7034 45.4476 43.5657 47.0353 42.9634 47.763C42.6287 48.1599 42.2941 48.8215 41.4241 49.7476C40.0187 51.2692 38.1449 52.1292 36.4049 51.5338C35.4011 51.203 34.7318 50.4092 34.4641 49.483C34.3972 49.2846 34.3303 49.2184 34.1964 49.3507C33.9287 49.6815 33.3264 50.2107 32.791 50.5415C32.7241 50.6076 32.5903 50.6738 32.4564 50.6076C32.3226 50.5415 31.988 50.0784 31.921 49.8799C31.8541 49.7476 31.921 49.6815 31.988 49.6153C32.7241 49.0199 33.0587 48.623 33.3934 48.2923C33.5941 48.0276 33.7949 47.6969 33.9957 47.1676C34.3972 46.1092 35.401 44.1246 37.3418 43.0661C38.078 42.6692 38.8141 42.4046 39.6841 42.2723C40.0187 42.2061 40.3534 42.2723 40.4203 42.5369C40.4872 42.6692 40.5541 42.9338 40.621 43.0661C40.688 43.1984 40.621 43.2646 40.4872 43.3307C39.3495 43.7938 38.2118 44.4553 37.4087 45.5138C36.4718 46.7046 36.271 48.1599 36.8734 48.9538C37.3418 49.5492 38.0111 49.6815 38.7472 49.4169C39.818 49.0861 40.688 48.1599 41.1564 47.0353C41.6249 45.8446 41.7587 44.5215 41.3572 43.2646C41.2903 43.0661 41.3572 42.8676 41.491 42.8015C41.7587 42.603 42.1603 42.4046 42.2272 42.3384C42.4949 42.2061 42.7626 42.2723 42.8964 42.4707C43.298 42.9999 43.4987 43.7938 43.4987 44.6538C43.4987 44.8523 43.5657 44.8523 43.6995 44.7199C44.3687 43.9923 45.038 43.2646 45.7072 42.6692C46.3764 42.1399 47.2464 41.743 47.9826 41.743C48.9864 41.743 49.5218 42.4707 49.4549 43.6615C49.4549 43.7938 49.5887 43.7938 49.6557 43.7276C49.9903 43.2646 50.191 43.0661 50.5257 42.8015C51.2618 42.2061 51.9311 41.9415 52.7341 42.0076C53.6711 42.0738 54.4072 42.9338 54.2734 43.8599C54.2064 44.4553 53.8049 45.0507 53.2695 45.3153C52.801 45.5799 52.1987 45.5138 51.7972 45.183C51.4626 44.9184 51.3957 44.4553 51.4626 44.0584C51.4626 43.9923 51.3957 43.8599 51.2618 43.9923C50.3249 44.9184 50.258 46.1092 50.8603 46.7046C51.5295 47.2999 52.4664 46.903 53.2026 46.4399C54.541 45.5799 55.5449 44.4553 56.6826 43.5292C57.4857 42.9338 58.3557 42.4046 59.3595 42.2723C59.8949 42.2061 60.4303 42.2061 60.9657 42.4707C61.7018 42.7353 62.1034 43.3307 62.1703 43.8599C62.1703 43.9923 62.3041 44.0584 62.371 43.9261C62.9064 43.0661 65.9849 38.5676 66.2526 38.1046C66.3195 37.9723 66.3864 37.9061 66.5872 37.9061C67.2564 37.9061 68.1264 37.9061 68.7287 37.9061C68.9295 38.1707 68.9295 38.2369 68.9295 38.303Z" fill="#141414"/>
</g>
</svg>
