<svg width="77" height="77" viewBox="0 0 77 77" fill="none" xmlns="http://www.w3.org/2000/svg">
<g id="honda-svgrepo-com" clip-path="url(#clip0_26_1136)">
<g id="Group">
<path id="Vector" d="M56.2842 12.4307C54.5578 20.3724 53.8672 23.9979 52.3134 29.6952C50.7596 35.3925 49.8963 40.2266 47.9972 42.8163C46.6161 44.7154 44.3717 45.9239 41.9546 46.0966C39.7102 46.2692 37.2932 46.2692 35.0488 46.0966C32.6318 45.9239 30.3874 44.7154 29.0062 42.8163C27.1071 40.3993 26.0712 35.2199 24.6901 29.6952C23.3089 24.1706 22.4457 20.3724 20.7192 12.4307L18.1295 12.6033C17.0936 12.6033 16.2304 12.776 15.3672 12.9486C15.3672 12.9486 16.4031 29.1773 16.921 36.0831C17.4389 43.3342 18.3022 55.4194 18.9927 64.7423C18.9927 64.7423 20.5466 64.915 22.9636 65.0876C25.3806 65.2603 26.7618 65.2603 26.7618 65.2603C27.7977 61.1168 29.1788 55.5921 30.56 53.1751C31.4232 51.7939 32.9771 50.9307 34.7035 50.9307C35.912 50.758 37.1206 50.758 38.5017 50.758C39.7102 50.758 40.9188 50.758 42.2999 50.9307C44.0264 50.9307 45.5802 51.7939 46.4434 53.1751C47.9972 55.5921 49.2058 61.1168 50.2416 65.2603C50.2416 65.2603 51.4501 65.2603 54.0398 65.0876C56.6295 64.915 58.0107 64.7423 58.0107 64.7423C58.8739 55.5921 59.7371 43.3342 60.0824 36.0831C60.6004 29.1773 61.6362 12.9486 61.6362 12.9486C60.773 12.776 59.9098 12.776 58.8739 12.6033L56.2842 12.4307Z" fill="#141414"/>
<path id="Vector_2" d="M76.6555 22.0988C75.6196 11.74 68.7138 9.66826 62.6712 8.63239C58.7003 8.11445 54.7295 7.76916 50.7586 7.59651C47.651 7.42387 40.5725 7.25122 38.5008 7.25122C36.429 7.25122 29.1779 7.42387 26.2429 7.59651C22.0994 7.59651 18.1286 7.9418 14.1577 8.63239C8.11512 9.66826 1.20929 11.9127 0.173416 22.0988C-0.171875 25.5517 -0.171875 29.0046 -0.171875 32.4575C-0.171875 37.1189 0.173416 41.7804 0.863999 46.4418C1.20929 50.4127 2.07252 54.2109 3.10839 58.1817C4.66221 62.6705 6.04337 64.0517 7.59718 65.2602C10.3595 67.1593 13.2945 68.1952 16.5748 68.7131C31.077 70.2669 45.5792 70.2669 60.0815 68.7131C63.3618 68.1952 66.2967 67.1593 69.0591 65.2602C70.7855 63.879 72.1667 62.6705 73.5479 58.1817C74.5837 54.3835 75.447 50.4127 75.7923 46.4418C76.3102 41.7804 76.6555 37.1189 76.8281 32.4575C77.0008 29.0046 76.8281 25.5517 76.6555 22.0988ZM72.8573 39.3633C72.6846 45.0606 71.8214 50.5853 70.4402 56.11C69.9223 58.6996 68.5411 60.944 66.642 62.8431C64.0523 64.9149 60.9447 66.1234 57.8371 66.2961C44.8887 67.6772 31.9402 67.6772 18.9918 66.2961C15.7115 66.1234 12.7766 64.9149 10.1869 62.8431C8.28777 60.944 7.07925 58.6996 6.38866 56.11C5.0075 50.5853 4.31691 45.0606 3.97162 39.3633C3.62633 33.666 3.62633 27.7961 4.14427 22.0988C5.18014 15.5382 8.28777 12.4306 15.1936 11.2221C18.9918 10.5315 22.9627 10.1862 26.7609 10.0136C30.0411 9.84091 35.3931 9.66826 38.5008 9.66826C41.6084 9.66826 46.9604 9.66826 50.2407 10.0136C54.0389 10.1862 58.0097 10.5315 61.8079 11.2221C68.7138 12.4306 71.8214 15.7109 72.6846 22.0988C73.0299 27.7961 73.2026 33.666 72.8573 39.3633Z" fill="#141414"/>
</g>
</g>
<defs>
<clipPath id="clip0_26_1136">
<rect width="77" height="77" fill="white"/>
</clipPath>
</defs>
</svg>
