<svg width="77" height="77" viewBox="0 0 77 77" fill="current" xmlns="http://www.w3.org/2000/svg">
<g id="infiniti-svgrepo-com">
<g id="Group">
<g id="Group_2">
<g id="Group_3">
<path id="Vector" d="M48.4892 58.2848C49.8581 58.1137 59.3761 56.9587 66.0922 53.6006C73.3645 49.9645 76.8722 44.0826 76.8722 38.8637C76.8722 27.5918 61.0872 18.8865 38.4792 18.8865C15.8711 18.8865 0.128906 27.5276 0.128906 38.8637C0.128906 44.1468 3.59391 50.0929 10.9089 53.6006C17.6678 56.8518 27.25 58.0495 28.6831 58.2848L38.4792 29.6237L48.4892 58.2848ZM38.4792 25.1534C38.4792 25.1534 23.5711 45.0237 22.1381 46.8204C16.6411 46.3284 7.12307 42.6923 7.12307 36.4681C7.12307 28.5543 20.9831 21.1751 38.4792 21.1751C56.8522 21.1751 69.8353 28.5543 69.8353 36.4681C69.8353 42.7351 60.3172 46.307 54.8203 46.7562C53.3231 44.8526 38.4792 25.1534 38.4792 25.1534Z" />
</g>
</g>
</g>
</g>
</svg>
