<svg width="86" height="86" viewBox="0 0 86 86" fill="current" xmlns="http://www.w3.org/2000/svg">
<g id="kia-svgrepo-com">
<path id="Vector" d="M76.5574 29.5049C66.2787 24.3173 54.6893 22.0573 43.2135 22.0573C31.6413 22.0573 19.5772 23.8633 9.33635 29.5049C5.04323 31.8819 0.275391 36.0409 0.275391 41.3419C0.275391 46.5845 4.96755 50.9361 9.30195 53.1204C19.5979 58.3252 31.2079 60.5681 42.7009 60.5681C54.2696 60.5681 66.3372 58.7621 76.5746 53.1411C80.8299 50.8053 85.6183 46.6636 85.6183 41.3797C85.6183 36.0787 80.964 31.7099 76.5574 29.5049ZM27.8229 51.3351L20.8294 42.9174H20.6196V51.3351H15.1844V32.5665H13.9872V31.3109H20.6196V38.3594H20.8294L26.5673 31.3109H32.6836L25.0847 40.6573L33.9014 51.3351H27.8229ZM45.2259 51.3351H39.7941V32.6421H38.6176V31.2558H45.2293V51.3351H45.2259ZM66.2408 51.3351L61.7757 38.2459L57.2934 51.3351H51.3663L57.8816 32.563H56.8187V31.3281H65.1985L72.02 51.3351H66.2408Z" />
</g>
</svg>
