<svg width="77" height="77" viewBox="0 0 77 77" fill="none" xmlns="http://www.w3.org/2000/svg">
<g id="mazda" clip-path="url(#clip0_26_1128)">
<path id="Vector" d="M38.4968 41.3105C38.3813 41.3105 38.1599 41.1629 37.7845 40.4764C36.2135 37.5513 34.0565 34.9815 31.4481 32.9271C29.4011 31.3217 27.1287 30.0266 24.7042 29.0836C24.3367 28.9343 23.9677 28.7889 23.5973 28.6472C20.3505 27.3639 16.9849 26.0389 13.86 24.2294C13.5136 24.0333 13.1713 23.83 12.8333 23.6198C13.4557 22.5289 14.1808 21.4862 14.9829 20.5334C16.1469 19.142 17.5001 17.9206 19.003 16.9047C20.6165 15.8259 22.3609 14.9569 24.194 14.3188C28.1018 12.9264 32.7827 12.243 38.4968 12.2366C44.2172 12.243 48.895 12.9264 52.8027 14.322C54.6372 14.9579 56.3828 15.8259 57.997 16.9047C59.5082 17.9282 60.8589 19.1474 62.0171 20.5301C62.8192 21.4862 63.541 22.5289 64.1667 23.6198C63.8362 23.8251 63.4865 24.0336 63.14 24.2358C60.0087 26.0453 56.6495 27.3703 53.3963 28.6504L52.2894 29.0868C49.8672 30.0306 47.5971 31.3256 45.5519 32.9304C42.9424 34.9848 40.7852 37.556 39.2155 40.4828C38.8401 41.1661 38.6155 41.3105 38.4968 41.3105ZM38.4968 64.0031C33.5431 63.9966 29.5199 63.5892 26.2089 62.7614C22.9588 61.9529 20.2574 60.7081 17.9442 58.9499C16.171 57.5882 14.6581 55.9177 13.4782 54.0187C12.3728 52.2469 11.4995 50.3406 10.8795 48.3464C9.91253 45.2472 9.40767 42.0224 9.38117 38.7759C9.38117 36.6135 9.53196 34.5634 9.81429 32.6769C13.3627 34.5891 16.7218 35.5484 19.696 36.3986L20.3857 36.5911C24.5245 37.7814 27.8098 39.3406 30.4439 41.3651C31.9678 42.5457 33.2993 43.9093 34.3901 45.4204C35.574 47.0502 36.5173 48.9111 37.2038 50.9548C37.5118 51.882 37.8455 52.4563 38.4968 52.4563C39.1609 52.4563 39.485 51.8788 39.7962 50.9548C41.0208 47.1455 43.3792 43.8009 46.5561 41.3683C49.187 39.3406 52.4755 37.7814 56.6143 36.5911L57.3072 36.3986C60.2782 35.5484 63.6373 34.5891 67.1825 32.6769C67.4713 34.5666 67.6188 36.6135 67.6188 38.7727C67.6188 40.2421 67.4712 44.1114 66.127 48.3464C65.5073 50.3402 64.6351 52.2464 63.5314 54.0187C62.3479 55.919 60.8305 57.5896 59.0526 58.9499C56.733 60.7081 54.0315 61.9529 50.7943 62.7614C47.4737 63.5892 43.4537 63.9966 38.4968 64.0031ZM69.592 17.3026C63.4672 10.7255 53.5824 7.70965 38.4968 7.6936C23.4176 7.70965 13.5328 10.7223 7.40804 17.2994C2.85542 22.1792 0 28.9328 0 38.0958C0 43.1617 1.25125 56.0624 11.4345 62.7229C17.5303 66.7077 25.4036 69.2872 38.4968 69.3064C51.5964 69.2872 59.4665 66.7077 65.5655 62.7229C75.7455 56.0624 77 43.1585 77 38.0958C77 28.9584 74.1221 22.1568 69.5888 17.2961L69.592 17.3026Z" fill="#141414"/>
</g>
<defs>
<clipPath id="clip0_26_1128">
<rect width="77" height="77" fill="white"/>
</clipPath>
</defs>
</svg>
