<svg width="48" height="48" viewBox="0 0 48 48" fill="current" xmlns="http://www.w3.org/2000/svg">
<g id="fluent:chevron-up-12-filled">
<path id="Vector" d="M30.1213 39.12C30.6831 38.5575 30.9986 37.795 30.9986 37C30.9986 36.205 30.6831 35.4425 30.1213 34.88L19.2413 24L30.1213 13.12C30.6512 12.5513 30.9397 11.7991 30.926 11.0219C30.9123 10.2447 30.5974 9.50312 30.0478 8.95347C29.4981 8.40382 28.7566 8.08896 27.9794 8.07525C27.2022 8.06154 26.45 8.35003 25.8813 8.87996L12.8813 21.88C12.3195 22.4425 12.0039 23.205 12.0039 24C12.0039 24.795 12.3195 25.5575 12.8813 26.12L25.8813 39.12C26.4438 39.6818 27.2063 39.9973 28.0013 39.9973C28.7963 39.9973 29.5588 39.6818 30.1213 39.12Z"/>
</g>
</svg>
