<svg width="40" height="40" viewBox="0 0 40 40" fill="current" xmlns="http://www.w3.org/2000/svg">
<g id="fluent:chevron-up-12-filled">
<path id="Vector" d="M17.8807 8.88005C17.3189 9.44255 17.0033 10.205 17.0033 11C17.0033 11.795 17.3189 12.5575 17.8807 13.12L28.7607 24L17.8807 34.88C17.3508 35.4487 17.0623 36.2009 17.076 36.9781C17.0897 37.7553 17.4045 38.4969 17.9542 39.0465C18.5038 39.5962 19.2454 39.911 20.0226 39.9247C20.7998 39.9385 21.552 39.65 22.1207 39.12L35.1207 26.12C35.6825 25.5575 35.998 24.795 35.998 24C35.998 23.205 35.6825 22.4425 35.1207 21.88L22.1207 8.88005C21.5582 8.31824 20.7957 8.00268 20.0007 8.00268C19.2057 8.00268 18.4432 8.31824 17.8807 8.88005Z"/>
</g>
</svg>
