<svg width="70" height="70" viewBox="0 0 70 70" fill="none" xmlns="http://www.w3.org/2000/svg">
<g id="volvo" clip-path="url(#clip0_26_1142)">
<path id="Vector" d="M32.8679 32.7396H31.3454V31.7392H37.3888V32.7396H35.8838V37.2605H37.2808C38.5729 37.2605 39.4217 36.4088 39.4217 35.248H40.4192V38.2755H31.3483V37.2634H32.8708L32.8679 32.7396ZM40.2558 32.7425H38.7537V31.7392H45.3104V32.7425H43.7238L45.9346 36.7763L48.1192 32.7425H46.8125V31.7392H51.3333V32.7425H49.8283L46.8329 38.2842L43.3038 38.2813L40.2558 32.7425ZM55.3671 31.5992C58.4033 31.5992 60.0338 33.1159 60.0338 35.0146C60.0338 36.9396 58.4967 38.4767 55.3846 38.4767C52.2725 38.4767 50.7208 36.9425 50.7208 35.0146C50.7208 33.1159 52.3338 31.6021 55.3671 31.6021V31.5992ZM16.8612 36.7792L19.0429 32.7455H17.7392V31.7421H22.2542V32.7455H20.7521L17.7537 38.2871L14.2246 38.2842L11.1767 32.7455H9.6775V31.7421H16.2313V32.7455H14.6475L16.8612 36.7792ZM26.3025 31.6021C29.3387 31.6021 30.9692 33.1188 30.9692 35.0175C30.9692 36.9425 29.4321 38.4796 26.32 38.4796C23.2079 38.4796 21.6563 36.9455 21.6563 35.0175C21.6563 33.1188 23.2662 31.605 26.3025 31.605V31.6021ZM24.6954 34.9767C24.7158 33.7167 25.3196 32.6171 26.3579 32.6346C27.3962 32.655 27.9446 33.7721 27.9242 35.035C27.9008 36.2221 27.4108 37.4588 26.2704 37.4384C25.1621 37.418 24.675 36.193 24.6954 34.9767ZM53.76 34.9767C53.7804 33.7167 54.3842 32.6171 55.4225 32.6346C56.4608 32.655 57.0092 33.7721 56.9888 35.035C56.9654 36.2221 56.4754 37.4588 55.335 37.4384C54.2267 37.418 53.7396 36.193 53.76 34.9767ZM9.40917 28.6709C12.2442 17.1705 22.6246 8.64212 35 8.64212C47.3754 8.64212 57.7558 17.1705 60.5908 28.668L9.40917 28.6709ZM60.5908 41.335C57.7558 52.8325 47.3754 61.3609 35 61.3609C22.6246 61.3609 12.2442 52.8325 9.40917 41.335H60.5908ZM63.0671 14.0905L64.7238 12.4309C65.9021 13.9825 66.9667 15.6275 67.8942 17.3542H69.2038V0.825453H52.675V2.12045C54.3929 3.04504 56.0292 4.10379 57.5692 5.27629L55.9096 6.93295C49.8728 2.42167 42.5362 -0.0109054 35 3.67533e-05C15.6713 3.67533e-05 0 15.6713 0 35C0 54.3288 15.6713 70 35 70C54.3288 70 70 54.3288 70 35C70 27.16 67.4217 19.9238 63.0671 14.0905Z" fill="#141414"/>
</g>
<defs>
<clipPath id="clip0_26_1142">
<rect width="70" height="70" fill="white"/>
</clipPath>
</defs>
</svg>
