<svg width="38" height="38" viewBox="0 0 38 38" fill="none" xmlns="http://www.w3.org/2000/svg">
<g id="favorite_FILL0_wght400_GRAD0_opsz24 1">
<path id="Vector" d="M19.0003 33.75L16.7045 31.6916C14.0392 29.2902 11.8357 27.2187 10.0941 25.4771C8.35241 23.7354 6.96699 22.1718 5.93783 20.7864C4.90866 19.401 4.18956 18.1277 3.78053 16.9666C3.37151 15.8055 3.16699 14.618 3.16699 13.4041C3.16699 10.9236 3.99824 8.85205 5.66074 7.18955C7.32324 5.52705 9.39477 4.6958 11.8753 4.6958C13.2475 4.6958 14.5538 4.98608 15.7941 5.56663C17.0344 6.14719 18.1031 6.96525 19.0003 8.0208C19.8975 6.96525 20.9663 6.14719 22.2066 5.56663C23.4469 4.98608 24.7531 4.6958 26.1253 4.6958C28.6059 4.6958 30.6774 5.52705 32.3399 7.18955C34.0024 8.85205 34.8337 10.9236 34.8337 13.4041C34.8337 14.618 34.6291 15.8055 34.2201 16.9666C33.8111 18.1277 33.092 19.401 32.0628 20.7864C31.0337 22.1718 29.6482 23.7354 27.9066 25.4771C26.1649 27.2187 23.9614 29.2902 21.2962 31.6916L19.0003 33.75ZM19.0003 29.475C21.5337 27.2055 23.6184 25.2593 25.2545 23.6364C26.8906 22.0135 28.1837 20.6017 29.1337 19.401C30.0837 18.2003 30.7434 17.1316 31.1128 16.1948C31.4823 15.258 31.667 14.3277 31.667 13.4041C31.667 11.8208 31.1392 10.5014 30.0837 9.4458C29.0281 8.39025 27.7087 7.86247 26.1253 7.86247C24.885 7.86247 23.7371 8.21212 22.6816 8.91143C21.626 9.61073 20.9003 10.5014 20.5045 11.5833H17.4962C17.1003 10.5014 16.3746 9.61073 15.3191 8.91143C14.2635 8.21212 13.1156 7.86247 11.8753 7.86247C10.292 7.86247 8.97255 8.39025 7.91699 9.4458C6.86144 10.5014 6.33366 11.8208 6.33366 13.4041C6.33366 14.3277 6.51838 15.258 6.88783 16.1948C7.25727 17.1316 7.91699 18.2003 8.86699 19.401C9.81699 20.6017 11.11 22.0135 12.7462 23.6364C14.3823 25.2593 16.467 27.2055 19.0003 29.475Z"/>
</g>
</svg>
