<svg width="142" height="36" viewBox="0 0 142 36" fill="none" xmlns="http://www.w3.org/2000/svg">
<path d="M14.6 30.94C12.6 30.94 10.72 30.54 8.92 29.78C7.16 29.06 5.6 28.02 4.28 26.66C2.92 25.34 1.88 23.78 1.16 22.02C0.4 20.22 2.98023e-08 18.34 2.98023e-08 16.38C2.98023e-08 14.38 0.4 12.5 1.16 10.7C1.88 8.94 2.92 7.38 4.28 6.06C5.6 4.7 7.16 3.66 8.92 2.94C10.72 2.18 12.6 1.78 14.6 1.78C16.88 1.78 19.12 2.3 21.16 3.34C23.12 4.34 24.84 5.78 26.2 7.54L22.36 10.42C21.48 9.26 20.32 8.3 19 7.62C17.6 6.94 16.12 6.58 14.6 6.58C11.96 6.58 9.52 7.58 7.68 9.46C5.8 11.3 4.8 13.74 4.8 16.38C4.8 18.98 5.8 21.42 7.68 23.26C9.52 25.14 11.96 26.14 14.6 26.14C16.32 26.14 18.08 25.66 19.56 24.78C21.04 23.9 22.24 22.66 23.08 21.18L27.24 23.58C26 25.78 24.2 27.62 22 28.9C19.76 30.22 17.2 30.94 14.6 30.94ZM34.2272 30.5H28.8672L43.8272 0.979999L58.7872 30.5H53.3872L50.8272 25.46H36.8272L34.2272 30.5ZM43.8272 11.74L38.6672 21.86H48.9872L43.8272 11.74ZM80.2228 30.5L72.3028 18.54H67.5828V30.5H62.3828V2.06H75.6628C75.9028 2.06 77.7828 2.1 79.7428 3.06C82.5428 4.42 84.1028 7.02 84.1028 10.3C84.1028 11.58 83.8628 12.74 83.4628 13.74C83.1028 14.7 82.5428 15.5 81.8228 16.22C80.5828 17.42 79.1028 18.02 77.9028 18.3L85.9828 30.5H80.2228ZM67.5828 6.46V14.14H75.7028C75.8628 14.14 77.6628 14.1 78.7428 13.06C79.3828 12.42 79.7028 11.54 79.7028 10.3C79.7028 8.7 79.1028 7.66 77.8228 7.02C76.7828 6.5 75.7028 6.46 75.6228 6.46H67.5828Z" fill="#141414"/>
<path d="M96.976 18.356C100.408 18.356 103.168 21.14 103.168 24.572C103.168 27.98 100.408 30.764 96.976 30.764C94.84 30.764 92.968 29.684 91.84 28.052V35.036H88.96V18.74H91.84V21.068C92.968 19.436 94.84 18.356 96.976 18.356ZM96.424 28.412C98.56 28.412 100.264 26.708 100.264 24.572C100.264 22.46 98.56 20.732 96.424 20.732C94.312 20.732 92.584 22.46 92.584 24.572C92.584 26.708 94.312 28.412 96.424 28.412ZM115.944 18.788H118.824V30.5H115.944V28.124C114.84 29.756 112.944 30.836 110.808 30.836C107.4 30.836 104.616 28.052 104.616 24.62C104.616 21.188 107.4 18.428 110.808 18.428C112.944 18.428 114.84 19.508 115.944 21.14V18.788ZM111.36 28.484C113.472 28.484 115.2 26.756 115.2 24.644C115.2 22.508 113.472 20.804 111.36 20.804C109.248 20.804 107.52 22.508 107.52 24.644C107.52 26.756 109.248 28.484 111.36 28.484ZM127.557 18.62V21.668C127.533 21.668 127.509 21.644 127.485 21.644C127.173 21.548 126.861 21.5 126.549 21.5C125.709 21.5 124.893 21.812 124.341 22.412C124.053 22.724 123.861 23.108 123.741 23.516C123.621 23.9 123.621 24.284 123.621 24.692V30.5H120.741V18.788H123.621V20.516C123.621 20.516 124.893 18.476 127.557 18.62ZM136.131 23.588L141.219 30.5H137.955L134.331 25.58L132.363 27.74V30.5H129.483V13.436H132.363V23.828L137.571 18.068H141.147L136.131 23.588Z" fill="#9747FF"/>
</svg>
