<svg xmlns="http://www.w3.org/2000/svg" width="32" height="32" viewBox="0 0 32 32" fill="none">
  <path d="M22.9555 25.7764C21.2466 23.8677 18.7635 22.6667 16 22.6667C13.2365 22.6667 10.7532 23.8677 9.04427 25.7764M16 28C9.37258 28 4 22.6274 4 16C4 9.37258 9.37258 4 16 4C22.6274 4 28 9.37258 28 16C28 22.6274 22.6274 28 16 28ZM16 18.6667C13.7909 18.6667 12 16.8758 12 14.6667C12 12.4575 13.7909 10.6667 16 10.6667C18.2091 10.6667 20 12.4575 20 14.6667C20 16.8758 18.2091 18.6667 16 18.6667Z"  stroke-width="3" stroke-linecap="round" stroke-linejoin="round"/>
</svg>