<svg width="38" height="38" viewBox="0 0 38 38" fill="none" xmlns="http://www.w3.org/2000/svg">
<g id="account_circle_FILL0_wght400_GRAD0_opsz24 1">
<path id="Vector" d="M9.26283 27.5748C10.6087 26.5457 12.1128 25.7342 13.7753 25.1405C15.4378 24.5467 17.1795 24.2498 19.0003 24.2498C20.8212 24.2498 22.5628 24.5467 24.2253 25.1405C25.8878 25.7342 27.392 26.5457 28.7378 27.5748C29.6614 26.4929 30.3805 25.2658 30.8951 23.8936C31.4097 22.5214 31.667 21.0568 31.667 19.4998C31.667 15.9901 30.4333 13.0016 27.966 10.5342C25.4986 8.06685 22.51 6.83317 19.0003 6.83317C15.4906 6.83317 12.5021 8.06685 10.0347 10.5342C7.56734 13.0016 6.33366 15.9901 6.33366 19.4998C6.33366 21.0568 6.59095 22.5214 7.10553 23.8936C7.62012 25.2658 8.33921 26.4929 9.26283 27.5748ZM19.0003 21.0832C17.4434 21.0832 16.1305 20.5488 15.0618 19.48C13.993 18.4113 13.4587 17.0984 13.4587 15.5415C13.4587 13.9846 13.993 12.6717 15.0618 11.603C16.1305 10.5342 17.4434 9.99984 19.0003 9.99984C20.5573 9.99984 21.8701 10.5342 22.9389 11.603C24.0076 12.6717 24.542 13.9846 24.542 15.5415C24.542 17.0984 24.0076 18.4113 22.9389 19.48C21.8701 20.5488 20.5573 21.0832 19.0003 21.0832ZM19.0003 35.3332C16.81 35.3332 14.7517 34.9175 12.8253 34.0863C10.8989 33.255 9.22324 32.1269 7.79824 30.7019C6.37324 29.2769 5.24512 27.6012 4.41387 25.6748C3.58262 23.7484 3.16699 21.6901 3.16699 19.4998C3.16699 17.3096 3.58262 15.2512 4.41387 13.3248C5.24512 11.3984 6.37324 9.72275 7.79824 8.29775C9.22324 6.87275 10.8989 5.74463 12.8253 4.91338C14.7517 4.08213 16.81 3.6665 19.0003 3.6665C21.1906 3.6665 23.2489 4.08213 25.1753 4.91338C27.1017 5.74463 28.7774 6.87275 30.2024 8.29775C31.6274 9.72275 32.7555 11.3984 33.5868 13.3248C34.418 15.2512 34.8337 17.3096 34.8337 19.4998C34.8337 21.6901 34.418 23.7484 33.5868 25.6748C32.7555 27.6012 31.6274 29.2769 30.2024 30.7019C28.7774 32.1269 27.1017 33.255 25.1753 34.0863C23.2489 34.9175 21.1906 35.3332 19.0003 35.3332ZM19.0003 32.1665C20.3989 32.1665 21.7184 31.962 22.9587 31.553C24.1989 31.1439 25.3337 30.5568 26.3628 29.7915C25.3337 29.0262 24.1989 28.4391 22.9587 28.03C21.7184 27.621 20.3989 27.4165 19.0003 27.4165C17.6017 27.4165 16.2823 27.621 15.042 28.03C13.8017 28.4391 12.667 29.0262 11.6378 29.7915C12.667 30.5568 13.8017 31.1439 15.042 31.553C16.2823 31.962 17.6017 32.1665 19.0003 32.1665ZM19.0003 17.9165C19.6864 17.9165 20.2538 17.6922 20.7024 17.2436C21.151 16.795 21.3753 16.2276 21.3753 15.5415C21.3753 14.8554 21.151 14.288 20.7024 13.8394C20.2538 13.3908 19.6864 13.1665 19.0003 13.1665C18.3142 13.1665 17.7469 13.3908 17.2982 13.8394C16.8496 14.288 16.6253 14.8554 16.6253 15.5415C16.6253 16.2276 16.8496 16.795 17.2982 17.2436C17.7469 17.6922 18.3142 17.9165 19.0003 17.9165Z"/>
</g>
</svg>
