<svg xmlns="http://www.w3.org/2000/svg" width="30" height="30" viewBox="0 0 30 30" fill="none">
    <path d="M11.25 21.25H18.75M11.25 17.5H18.75M16.2505 3.75109C16.1311 3.75 15.9967 3.75 15.8434 3.75H10.2502C8.85011 3.75 8.14953 3.75 7.61475 4.02249C7.14434 4.26217 6.76217 4.64434 6.52248 5.11475C6.25 5.64953 6.25 6.35011 6.25 7.75024V22.2502C6.25 23.6504 6.25 24.3501 6.52248 24.8849C6.76217 25.3553 7.14434 25.7381 7.61475 25.9778C8.14901 26.25 8.84875 26.25 10.2462 26.25L19.7539 26.25C21.1513 26.25 21.85 26.25 22.3842 25.9778C22.8546 25.7381 23.2381 25.3553 23.4778 24.8849C23.75 24.3506 23.75 23.6519 23.75 22.2545V11.6571C23.75 11.5038 23.7499 11.3694 23.7488 11.25M16.2505 3.75109C16.6073 3.75434 16.8322 3.76758 17.0477 3.81934C17.3028 3.88058 17.5473 3.98158 17.771 4.11865C18.0232 4.27321 18.2398 4.48977 18.6719 4.92188L22.5787 8.82873C23.0111 9.26111 23.2261 9.4767 23.3807 9.72899C23.5178 9.95267 23.6192 10.1966 23.6804 10.4517C23.7322 10.6672 23.7455 10.8932 23.7488 11.25M16.2505 3.75109L16.25 7.25026C16.25 8.65039 16.25 9.35019 16.5225 9.88497C16.7622 10.3554 17.1443 10.7381 17.6147 10.9778C18.149 11.25 18.8488 11.25 20.2461 11.25H23.7488" stroke="#141414" stroke-width="2" stroke-linecap="round" stroke-linejoin="round"/>
</svg>