<svg width="54" height="54" viewBox="0 0 54 54" fill="none" xmlns="http://www.w3.org/2000/svg">
<path d="M21.3502 15.75H13.9504C11.4302 15.75 10.1691 15.75 9.20654 16.2405C8.35981 16.6719 7.6719 17.3598 7.24047 18.2065C6.75 19.1691 6.75 20.4302 6.75 22.9504V35.5504C6.75 38.0707 6.75 39.329 7.24047 40.2916C7.6719 41.1384 8.35981 41.8286 9.20654 42.26C10.1682 42.75 11.4277 42.75 13.943 42.75H40.057C42.5723 42.75 43.83 42.75 44.7916 42.26C45.6384 41.8286 46.3286 41.1384 46.76 40.2916C47.25 39.33 47.25 38.0723 47.25 35.557V22.943C47.25 20.4277 47.25 19.1682 46.76 18.2065C46.3286 17.3598 45.6384 16.6719 44.7916 16.2405C43.829 15.75 42.5707 15.75 40.0504 15.75H32.6493M21.3502 15.75H21.4893M21.3502 15.75C21.3784 15.75 21.408 15.75 21.4393 15.75L21.4893 15.75M21.3502 15.75C21.1114 15.7499 20.9776 15.7487 20.8718 15.7368C19.5498 15.5888 18.643 14.3304 18.9207 13.0294C18.9465 12.9083 18.9976 12.7551 19.0987 12.4518L19.103 12.4389C19.2185 12.0925 19.2763 11.9192 19.3401 11.7664C19.9932 10.2012 21.4722 9.13686 23.1636 9.01218C23.3288 9 23.5103 9 23.8755 9H30.1243C30.4895 9 30.6725 9 30.8377 9.01218C32.5291 9.13686 34.0065 10.2012 34.6597 11.7664C34.7235 11.9192 34.7815 12.0923 34.897 12.4387C35.001 12.7507 35.053 12.9068 35.0792 13.0296C35.3569 14.3306 34.4516 15.5888 33.1295 15.7368C33.0237 15.7487 32.8885 15.7499 32.6493 15.75M21.4893 15.75H32.5102M32.5102 15.75H32.6493M32.5102 15.75L32.5602 15.75C32.5914 15.75 32.6211 15.75 32.6493 15.75M27 36C23.2721 36 20.25 32.9779 20.25 29.25C20.25 25.5221 23.2721 22.5 27 22.5C30.7279 22.5 33.75 25.5221 33.75 29.25C33.75 32.9779 30.7279 36 27 36Z"  stroke-width="3" stroke-linecap="round" stroke-linejoin="round"/>
<circle cx="14.1143" cy="22.7046" r="1.84091" fill="#ABABAB"/>
</svg>
