<svg width="30" height="30" viewBox="0 0 30 30" fill="none" xmlns="http://www.w3.org/2000/svg">
<g id="File / File_Edit">
<path id="Vector" d="M7.5 13.7502V7.75024C7.5 6.35011 7.5 5.64953 7.77248 5.11475C8.01217 4.64434 8.39434 4.26217 8.86475 4.02248C9.39953 3.75 10.1001 3.75 11.5002 3.75H17.0934C17.2466 3.75 17.3806 3.75 17.5 3.75109M24.9988 11.25C25 11.3695 25 11.5037 25 11.6571V22.2545C25 23.6519 25 24.3506 24.7278 24.8848C24.4881 25.3553 24.1049 25.7381 23.6345 25.9778C23.1002 26.25 22.4012 26.25 21.0038 26.25L16.25 26.25M24.9988 11.25C24.9954 10.8931 24.9822 10.6672 24.9304 10.4517C24.8692 10.1966 24.7678 9.95268 24.6307 9.72899C24.4761 9.4767 24.2611 9.26111 23.8287 8.82873L19.9219 4.92188C19.4898 4.48977 19.2732 4.27321 19.021 4.11865C18.7973 3.98158 18.5536 3.88032 18.2986 3.81908C18.0829 3.76731 17.857 3.75434 17.5 3.75109M24.9988 11.25H25.0002M24.9988 11.25H21.4961C20.0987 11.25 19.399 11.25 18.8647 10.9778C18.3943 10.7381 18.0122 10.3549 17.7725 9.88449C17.5 9.34971 17.5 8.65013 17.5 7.25V3.75109M11.25 17.5L13.75 20M5 26.25V23.125L14.375 13.75L17.5 16.875L8.125 26.25H5Z"  stroke-width="2" stroke-linecap="round" stroke-linejoin="round"/>
</g>
</svg>
