<svg width="30" height="30" viewBox="0 0 30 30" fill="none" xmlns="http://www.w3.org/2000/svg">
<g id="Warning / Wavy_Check">
<path id="Vector" d="M18.7499 12.4998L13.7499 17.4998L11.2499 14.9998M16.5576 4.32349L18.0838 5.62411C18.4683 5.95179 18.9457 6.14989 19.4493 6.19007L21.4481 6.34937C22.6232 6.44315 23.5567 7.37599 23.6505 8.55116L23.8094 10.5503C23.8496 11.0539 24.0484 11.532 24.376 11.9165L25.6761 13.4423C26.4407 14.3396 26.4409 15.6594 25.6762 16.5567L24.3762 18.0827C24.0485 18.4672 23.8499 18.9455 23.8098 19.4491L23.6498 21.4479C23.5561 22.6231 22.6241 23.5565 21.4489 23.6503L19.4494 23.8098C18.9458 23.85 18.4679 24.0476 18.0834 24.3753L16.5576 25.6759C15.6603 26.4406 14.3396 26.4407 13.4423 25.6761L11.9164 24.3754C11.5319 24.0477 11.0541 23.8498 10.5505 23.8096L8.55097 23.6503C7.3758 23.5565 6.44382 22.6233 6.35004 21.4481L6.19013 19.4492C6.14994 18.9456 5.95139 18.4678 5.62372 18.0833L4.32367 16.5568C3.55902 15.6595 3.55866 14.34 4.32331 13.4428L5.62453 11.9163C5.9522 11.5318 6.14884 11.0539 6.18903 10.5503L6.34894 8.5514C6.44272 7.37623 7.3774 6.44303 8.55256 6.34925L10.5499 6.18995C11.0534 6.14976 11.5316 5.95182 11.9161 5.62415L13.4425 4.32349C14.3397 3.55884 15.6603 3.55884 16.5576 4.32349Z"  stroke-width="2" stroke-linecap="round" stroke-linejoin="round"/>
</g>
</svg>
