<svg width="36" height="36" viewBox="0 0 36 36" fill="none" xmlns="http://www.w3.org/2000/svg">
<g id="facebook-svgrepo-com">
<path id="Vector" d="M18 3.05994C9.75 3.05994 3 9.79494 3 18.09C3 25.59 8.49 31.815 15.66 32.94V22.44H11.85V18.09H15.66V14.7749C15.66 11.0099 17.895 8.93994 21.33 8.93994C22.965 8.93994 24.675 9.22494 24.675 9.22494V12.9299H22.785C20.925 12.9299 20.34 14.0849 20.34 15.27V18.09H24.51L23.835 22.44H20.34V32.94C23.8746 32.3817 27.0933 30.5782 29.4148 27.855C31.7364 25.1319 33.0081 21.6684 33 18.09C33 9.79494 26.25 3.05994 18 3.05994Z"/>
</g>
</svg>
