<svg width="31" height="32" viewBox="0 0 31 32" fill="none" xmlns="http://www.w3.org/2000/svg">
<g id="instagram-round-svgrepo-com" clip-path="url(#clip0_332_342)">
<g id="Group">
<path id="Vector" d="M15.4998 18.7246C17.0014 18.7246 18.2305 17.5016 18.2305 15.994C18.2305 15.4006 18.0367 14.8496 17.7158 14.4016C17.2194 13.7174 16.4141 13.2633 15.5059 13.2633C14.5977 13.2633 13.7924 13.7114 13.2959 14.4016C12.975 14.8496 12.7813 15.4006 12.7813 15.994C12.7752 17.5016 13.9983 18.7246 15.4998 18.7246Z" />
<path id="Vector_2" d="M21.4578 12.6639V10.3752V10.0361H21.1188L18.8301 10.0422L18.8422 12.6699L21.4578 12.6639Z" />
<path id="Vector_3" d="M19.7383 16C19.7383 18.3371 17.8371 20.2383 15.5 20.2383C13.1629 20.2383 11.2617 18.3371 11.2617 16C11.2617 15.4369 11.3768 14.898 11.5766 14.4076H9.26367V20.7529C9.26367 21.5703 9.92969 22.2363 10.7471 22.2363H20.2529C21.0703 22.2363 21.7363 21.5703 21.7363 20.7529V14.4076H19.4234C19.6293 14.898 19.7383 15.4369 19.7383 16Z" />
<path id="Vector_4" d="M15.5 0.5C6.93867 0.5 0 7.43867 0 16C0 24.5613 6.93867 31.5 15.5 31.5C24.0613 31.5 31 24.5613 31 16C31 7.43867 24.0613 0.5 15.5 0.5ZM23.25 14.4076V20.7529C23.25 22.4059 21.9059 23.75 20.2529 23.75H10.7471C9.09414 23.75 7.75 22.4059 7.75 20.7529V14.4076V11.241C7.75 9.58809 9.09414 8.24395 10.7471 8.24395H20.2529C21.9059 8.24395 23.25 9.58809 23.25 11.241V14.4076Z"/>
</g>
</g>
<defs>
<clipPath id="clip0_332_342">
<rect width="31" height="31"  transform="translate(0 0.5)"/>
</clipPath>
</defs>
</svg>
