<svg width="31" height="32" viewBox="0 0 31 32" fill="none" xmlns="http://www.w3.org/2000/svg">
<g id="youtube-round-svgrepo-com 1" clip-path="url(#clip0_332_350)">
<g id="Group">
<path id="Vector" d="M13.4355 18.9849L18.5094 16.006L13.4355 13.0271V18.9849Z" />
<path id="Vector_2" d="M15.5 0.5C6.93867 0.5 0 7.43867 0 16C0 24.5613 6.93867 31.5 15.5 31.5C24.0613 31.5 31 24.5613 31 16C31 7.43867 24.0613 0.5 15.5 0.5ZM23.25 18.773C23.25 21.4432 20.5799 21.4432 20.5799 21.4432H10.4201C7.75 21.4432 7.75 18.773 7.75 18.773V13.233C7.75 10.5629 10.4201 10.5629 10.4201 10.5629H20.5799C23.25 10.5629 23.25 13.233 23.25 13.233V18.773Z" />
</g>
</g>
<defs>
<clipPath id="clip0_332_350">
<rect width="31" height="31"  transform="translate(0 0.5)"/>
</clipPath>
</defs>
</svg>
